<?xml version="1.0" encoding="UTF-8" standalone="no"?>
<!-- Created with Inkscape (http://www.inkscape.org/) -->
<svg
   xmlns:dc="http://purl.org/dc/elements/1.1/"
   xmlns:cc="http://creativecommons.org/ns#"
   xmlns:rdf="http://www.w3.org/1999/02/22-rdf-syntax-ns#"
   xmlns:svg="http://www.w3.org/2000/svg"
   xmlns="http://www.w3.org/2000/svg"
   xmlns:xlink="http://www.w3.org/1999/xlink"
   xmlns:sodipodi="http://sodipodi.sourceforge.net/DTD/sodipodi-0.dtd"
   xmlns:inkscape="http://www.inkscape.org/namespaces/inkscape"
   width="80"
   height="80"
   id="svg2"
   sodipodi:version="0.32"
   inkscape:version="0.46"
   version="1.0"
   sodipodi:docname="BetaTag.svg"
   inkscape:output_extension="org.inkscape.output.svg.inkscape"
   inkscape:export-filename="C:\Documents and Settings\Edward\My Documents\Visual Studio 2005\Projects\Higgs\src\HiggsBin\GUI\BetaTag.png"
   inkscape:export-xdpi="45"
   inkscape:export-ydpi="45">
  <defs
     id="defs4">
    <linearGradient
       id="linearGradient3211">
      <stop
         style="stop-color:#ffff00;stop-opacity:1;"
         offset="0"
         id="stop3213" />
      <stop
         style="stop-color:#ff0000;stop-opacity:0;"
         offset="1"
         id="stop3215" />
    </linearGradient>
    <inkscape:perspective
       sodipodi:type="inkscape:persp3d"
       inkscape:vp_x="0 : 526.18109 : 1"
       inkscape:vp_y="0 : 1000 : 0"
       inkscape:vp_z="744.09448 : 526.18109 : 1"
       inkscape:persp3d-origin="372.04724 : 350.78739 : 1"
       id="perspective10" />
    <radialGradient
       inkscape:collect="always"
       xlink:href="#linearGradient3211"
       id="radialGradient3219"
       cx="49.163933"
       cy="25.17647"
       fx="49.163933"
       fy="25.17647"
       r="40"
       gradientTransform="matrix(0.6,0.6,-1.6,1.6,50.783992,-29.780711)"
       gradientUnits="userSpaceOnUse" />
    <radialGradient
       inkscape:collect="always"
       xlink:href="#linearGradient3211"
       id="radialGradient3251"
       gradientUnits="userSpaceOnUse"
       gradientTransform="matrix(0.6,0.6,-1.6,1.6,50.783992,-29.780711)"
       cx="49.163933"
       cy="25.17647"
       fx="49.163933"
       fy="25.17647"
       r="40" />
    <radialGradient
       inkscape:collect="always"
       xlink:href="#linearGradient3211"
       id="radialGradient3261"
       gradientUnits="userSpaceOnUse"
       gradientTransform="matrix(0.6,0.6,-1.6,1.6,50.783992,-29.780711)"
       cx="49.163933"
       cy="25.17647"
       fx="49.163933"
       fy="25.17647"
       r="40" />
    <radialGradient
       inkscape:collect="always"
       xlink:href="#linearGradient3211"
       id="radialGradient3269"
       gradientUnits="userSpaceOnUse"
       gradientTransform="matrix(0.6,0.6,-1.6,1.6,66.783992,-13.780711)"
       cx="49.163933"
       cy="25.17647"
       fx="49.163933"
       fy="25.17647"
       r="40" />
  </defs>
  <sodipodi:namedview
     id="base"
     pagecolor="#ffffff"
     bordercolor="#666666"
     borderopacity="1.0"
     gridtolerance="10000"
     guidetolerance="10"
     objecttolerance="10"
     inkscape:pageopacity="0.0"
     inkscape:pageshadow="2"
     inkscape:zoom="2"
     inkscape:cx="85.379073"
     inkscape:cy="-11.111771"
     inkscape:document-units="px"
     inkscape:current-layer="layer1"
     showgrid="true"
     showguides="true"
     inkscape:guide-bbox="true"
     inkscape:window-width="1180"
     inkscape:window-height="742"
     inkscape:window-x="96"
     inkscape:window-y="-4">
    <inkscape:grid
       type="xygrid"
       id="grid2383"
       visible="true"
       enabled="true"
       spacingx="8px"
       spacingy="8px"
       empspacing="4" />
  </sodipodi:namedview>
  <metadata
     id="metadata7">
    <rdf:RDF>
      <cc:Work
         rdf:about="">
        <dc:format>image/svg+xml</dc:format>
        <dc:type
           rdf:resource="http://purl.org/dc/dcmitype/StillImage" />
      </cc:Work>
    </rdf:RDF>
  </metadata>
  <g
     inkscape:label="Layer 1"
     inkscape:groupmode="layer"
     id="layer1">
    <path
       sodipodi:type="inkscape:offset"
       inkscape:radius="2.3235948"
       inkscape:original="M 54.84375 20.28125 L 53.25 22.78125 L 66.34375 40.75 L 67.9375 38.3125 L 63.875 32.96875 L 68.59375 25.6875 L 75.1875 27.0625 L 76.90625 24.4375 L 54.84375 20.28125 z M 55.84375 22.78125 C 56.961146 23.122485 58.424929 23.480389 60.25 23.875 L 66.28125 25.1875 L 62.4375 31.09375 L 58.5625 25.875 C 57.722807 24.757657 56.817329 23.726644 55.84375 22.78125 z M 50.25 27.34375 L 39.34375 39.65625 L 41.1875 41.28125 L 45.71875 36.15625 L 59.4375 48.28125 L 61.25 46.21875 L 47.53125 34.09375 L 52.09375 28.96875 L 50.25 27.34375 z M 39.1875 39.78125 L 27.9375 49.6875 L 41.6875 65.28125 L 53.28125 55.03125 L 51.65625 53.1875 L 42.125 61.625 L 37.4375 56.3125 L 46.0625 48.71875 L 44.4375 46.90625 L 35.84375 54.5 L 31.625 49.71875 L 40.8125 41.59375 L 39.1875 39.78125 z M 24.4375 52.96875 C 23.403442 53.127791 22.245063 53.618607 20.90625 54.46875 L 14.3125 58.65625 L 25.4375 76.15625 L 32.125 71.9375 C 33.240666 71.229035 34.136203 70.527342 34.78125 69.84375 C 35.426275 69.160176 35.857871 68.456395 36.125 67.75 C 36.392106 67.04362 36.476185 66.237907 36.375 65.3125 C 36.273789 64.387114 35.958718 63.508331 35.4375 62.6875 C 34.789743 61.667469 33.95172 60.949787 32.90625 60.5625 C 31.860762 60.175247 30.725995 60.169014 29.46875 60.53125 C 30.031476 59.60361 30.294842 58.700792 30.28125 57.78125 C 30.267646 56.861747 30.038182 55.999116 29.5625 55.25 C 29.051383 54.445142 28.332568 53.821187 27.40625 53.375 C 26.479926 52.928861 25.471556 52.809758 24.4375 52.96875 z M 24.28125 55.5625 C 24.902982 55.396955 25.47147 55.453605 26.03125 55.71875 C 26.591025 55.98394 27.068078 56.418276 27.4375 57 C 27.827155 57.613642 28.009501 58.216325 27.96875 58.8125 C 27.92799 59.408712 27.665878 59.981467 27.1875 60.53125 C 26.827255 60.95013 26.121762 61.47221 25.09375 62.125 L 21.3125 64.53125 L 17.9375 59.25 L 21.4375 57.03125 C 22.696621 56.23171 23.659518 55.72809 24.28125 55.5625 z M 29.4375 62.6875 C 30.155175 62.50575 30.82788 62.542924 31.46875 62.8125 C 32.109605 63.082104 32.64753 63.565295 33.0625 64.21875 C 33.416726 64.776601 33.585356 65.333156 33.625 65.90625 C 33.664623 66.479363 33.591904 66.986648 33.375 67.4375 C 33.158074 67.888368 32.816947 68.346576 32.34375 68.78125 C 32.076339 69.029342 31.561589 69.368073 30.8125 69.84375 L 26.4375 72.625 L 22.625 66.59375 L 26.6875 64.03125 C 27.803172 63.322792 28.719813 62.869281 29.4375 62.6875 z "
       style="font-size:4px;font-style:normal;font-weight:normal;fill:#ffffff;fill-opacity:1;stroke:none;stroke-width:1px;stroke-linecap:butt;stroke-linejoin:miter;stroke-opacity:1;font-family:Bitstream Vera Sans"
       id="path3278"
       d="M 54.59375,17.96875 C 53.888777,18.042263 53.255898,18.433497 52.875,19.03125 L 51.28125,21.53125 C 50.767562,22.341691 50.804806,23.384519 51.375,24.15625 L 53.5625,27.1875 L 51.78125,25.59375 C 51.317294,25.187253 50.710756,24.981896 50.095279,25.022928 C 49.479802,25.06396 48.905891,25.348013 48.5,25.8125 L 37.78125,37.90625 C 37.738013,37.946316 37.696316,37.988013 37.65625,38.03125 L 26.40625,47.9375 C 25.638504,48.619843 25.409793,49.725278 25.84375,50.65625 C 25.256937,50.613408 24.666017,50.599511 24.09375,50.6875 C 22.607464,50.916095 21.16543,51.541674 19.65625,52.5 L 13.0625,56.6875 C 12.538612,57.017526 12.168093,57.542979 12.033154,58.14727 C 11.898215,58.751561 12.010016,59.384716 12.34375,59.90625 L 23.46875,77.40625 C 23.798776,77.930138 24.324229,78.300657 24.92852,78.435596 C 25.532811,78.570535 26.165966,78.458734 26.6875,78.125 L 33.375,73.90625 C 34.60177,73.127232 35.63168,72.324589 36.46875,71.4375 C 37.305052,70.551218 37.93309,69.565809 38.3125,68.5625 C 38.695791,67.548861 38.742699,66.453489 38.65625,65.34375 L 39.9375,66.8125 C 40.343391,67.276987 40.917302,67.56104 41.532779,67.602072 C 42.148256,67.643104 42.754794,67.437747 43.21875,67.03125 L 54.8125,56.78125 C 55.276987,56.375359 55.56104,55.801448 55.602072,55.185971 C 55.643104,54.570494 55.437747,53.963956 55.03125,53.5 L 53.40625,51.65625 C 53.000359,51.191763 52.426448,50.90771 51.810971,50.866678 C 51.195494,50.825646 50.588956,51.031003 50.125,51.4375 L 42.3125,58.34375 L 40.71875,56.53125 L 47.59375,50.46875 C 48.063227,50.057609 48.347611,49.474919 48.382879,48.851861 C 48.418146,48.228803 48.201333,47.617743 47.78125,47.15625 L 46.15625,45.34375 C 45.304987,44.406116 43.859695,44.322733 42.90625,45.15625 L 36.0625,51.21875 L 34.90625,49.9375 L 42.34375,43.34375 C 42.386987,43.303684 42.428684,43.261987 42.46875,43.21875 C 42.489739,43.208647 42.510574,43.198229 42.53125,43.1875 C 42.53132,43.177083 42.53132,43.166667 42.53125,43.15625 C 42.679383,43.057601 42.815693,42.942262 42.9375,42.8125 L 45.90625,39.4375 L 57.90625,50.03125 C 58.370206,50.437747 58.976744,50.643104 59.592221,50.602072 C 60.207698,50.56104 60.781609,50.276987 61.1875,49.8125 L 63,47.75 C 63.406497,47.286044 63.611854,46.679506 63.570822,46.064029 C 63.52979,45.448552 63.245737,44.874641 62.78125,44.46875 L 50.8125,33.90625 L 53.84375,30.5 C 54.41107,29.845848 54.567638,28.930526 54.25,28.125 L 64.46875,42.125 C 64.918456,42.73791 65.639511,43.092112 66.399475,43.073424 C 67.159438,43.054737 67.862213,42.665523 68.28125,42.03125 L 69.875,39.59375 C 70.417893,38.768978 70.380296,37.691187 69.78125,36.90625 L 66.6875,32.84375 L 69.65625,28.28125 L 74.71875,29.34375 C 75.649852,29.533772 76.602833,29.137728 77.125,28.34375 L 78.84375,25.71875 C 79.271611,25.070828 79.347609,24.252024 79.046304,23.536425 C 78.744999,22.820825 78.106204,22.302986 77.34375,22.15625 L 55.28125,18 C 55.054905,17.955519 54.823197,17.944987 54.59375,17.96875 z M 62.03125,26.65625 L 62.5,26.75 L 62.3125,27.03125 L 62.03125,26.65625 z M 24.875,57.8125 C 25.029055,57.771481 24.905775,57.753068 25.03125,57.8125 C 25.16551,57.876105 25.304034,57.990624 25.46875,58.25 C 25.665197,58.559371 25.657575,58.636865 25.65625,58.65625 C 25.654816,58.677222 25.667199,58.736015 25.4375,59 C 25.43743,59.010417 25.43743,59.020833 25.4375,59.03125 C 25.432787,59.03673 24.804597,59.54611 23.84375,60.15625 L 22.03125,61.3125 L 21.15625,59.96875 L 22.6875,59 C 23.866821,58.251133 24.808927,57.830098 24.875,57.8125 z M 30,64.9375 C 30.309601,64.859094 30.386935,64.8949 30.5625,64.96875 C 30.717061,65.033773 30.888047,65.144829 31.09375,65.46875 C 31.251969,65.717921 31.297014,65.838636 31.3125,66.0625 C 31.332124,66.346342 31.290908,66.417425 31.28125,66.4375 C 31.210284,66.584998 31.065048,66.801806 30.78125,67.0625 C 30.770833,67.06243 30.760417,67.06243 30.75,67.0625 C 30.799437,67.016634 30.296833,67.408693 29.5625,67.875 L 27.15625,69.40625 L 25.84375,67.3125 L 27.9375,66 C 28.945786,65.359733 29.717506,65.009052 30,64.9375 z" />
    <path
       style="fill:#007fff;fill-opacity:1;fill-rule:evenodd;stroke:#000000;stroke-width:2;stroke-linecap:round;stroke-linejoin:round;stroke-miterlimit:4;stroke-dasharray:none;stroke-opacity:1"
       d="M 80,16 C 72,40 40,72 16,80 C 16,80 80,80 80,80 C 80,80 80,16 80,16 z"
       id="path2385"
       sodipodi:nodetypes="cscs" />
    <path
       style="fill:none;fill-rule:evenodd;stroke:none;stroke-width:1px;stroke-linecap:butt;stroke-linejoin:miter;stroke-opacity:1"
       d="M 16,80 C 40,72 72,40 80,16"
       id="path3183"
       sodipodi:nodetypes="cs" />
    <text
       xml:space="preserve"
       style="font-size:4px;font-style:normal;font-weight:normal;fill:#000000;fill-opacity:1;stroke:none;stroke-width:1px;stroke-linecap:butt;stroke-linejoin:miter;stroke-opacity:1;font-family:Bitstream Vera Sans"
       id="text3185"><textPath
         xlink:href="#path3183"
         id="textPath3191"
         style="font-size:28px;text-align:start;text-anchor:start"><tspan
   id="tspan3189"
   y="39.498543"
   x="0.1875"
   style="font-size:29px;text-align:start;text-anchor:start"> BETA</tspan></textPath></text>
  </g>
</svg>
