<?xml version="1.0" encoding="UTF-8" standalone="no"?>
<!-- Created with Inkscape (http://www.inkscape.org/) -->
<svg
   xmlns:dc="http://purl.org/dc/elements/1.1/"
   xmlns:cc="http://creativecommons.org/ns#"
   xmlns:rdf="http://www.w3.org/1999/02/22-rdf-syntax-ns#"
   xmlns:svg="http://www.w3.org/2000/svg"
   xmlns="http://www.w3.org/2000/svg"
   xmlns:xlink="http://www.w3.org/1999/xlink"
   xmlns:sodipodi="http://sodipodi.sourceforge.net/DTD/sodipodi-0.dtd"
   xmlns:inkscape="http://www.inkscape.org/namespaces/inkscape"
   width="80"
   height="20"
   id="svg2"
   sodipodi:version="0.32"
   inkscape:version="0.46"
   version="1.0"
   sodipodi:docname="Paddle.svg"
   inkscape:output_extension="org.inkscape.output.svg.inkscape"
   inkscape:export-filename="C:\Documents and Settings\Edward\My Documents\Visual Studio 2005\Projects\Ark\src\ArkBin\Sprites\Paddle.png"
   inkscape:export-xdpi="90"
   inkscape:export-ydpi="90">
  <defs
     id="defs4">
    <linearGradient
       id="linearGradient3259">
      <stop
         style="stop-color:#fffffd;stop-opacity:1;"
         offset="0"
         id="stop3261" />
      <stop
         style="stop-color:#ffffff;stop-opacity:0;"
         offset="1"
         id="stop3263" />
    </linearGradient>
    <inkscape:perspective
       sodipodi:type="inkscape:persp3d"
       inkscape:vp_x="0 : 526.18109 : 1"
       inkscape:vp_y="0 : 1000 : 0"
       inkscape:vp_z="744.09448 : 526.18109 : 1"
       inkscape:persp3d-origin="372.04724 : 350.78739 : 1"
       id="perspective10" />
    <filter
       inkscape:collect="always"
       id="filter3243"
       x="-0.11232"
       width="1.22464"
       y="-0.216"
       height="1.432">
      <feGaussianBlur
         inkscape:collect="always"
         stdDeviation="1.17"
         id="feGaussianBlur3245" />
    </filter>
    <filter
       inkscape:collect="always"
       id="filter3247"
       x="-0.312"
       width="1.624"
       y="-0.216"
       height="1.432">
      <feGaussianBlur
         inkscape:collect="always"
         stdDeviation="1.17"
         id="feGaussianBlur3249" />
    </filter>
    <filter
       inkscape:collect="always"
       id="filter3251"
       x="-0.312"
       width="1.624"
       y="-0.216"
       height="1.432">
      <feGaussianBlur
         inkscape:collect="always"
         stdDeviation="1.17"
         id="feGaussianBlur3253" />
    </filter>
    <linearGradient
       inkscape:collect="always"
       xlink:href="#linearGradient3259"
       id="linearGradient3265"
       x1="40"
       y1="-8"
       x2="40"
       y2="12"
       gradientUnits="userSpaceOnUse" />
    <linearGradient
       inkscape:collect="always"
       xlink:href="#linearGradient3259"
       id="linearGradient3269"
       gradientUnits="userSpaceOnUse"
       x1="40"
       y1="-8"
       x2="40"
       y2="12" />
  </defs>
  <sodipodi:namedview
     id="base"
     pagecolor="#ffffff"
     bordercolor="#666666"
     borderopacity="1.0"
     gridtolerance="10000"
     guidetolerance="10"
     objecttolerance="10"
     inkscape:pageopacity="0.0"
     inkscape:pageshadow="2"
     inkscape:zoom="1"
     inkscape:cx="43.652032"
     inkscape:cy="1.0704203"
     inkscape:document-units="px"
     inkscape:current-layer="layer1"
     showgrid="true"
     inkscape:window-width="1180"
     inkscape:window-height="742"
     inkscape:window-x="96"
     inkscape:window-y="-4"
     inkscape:snap-bbox="true">
    <inkscape:grid
       type="xygrid"
       id="grid2383"
       visible="true"
       enabled="true"
       empspacing="4" />
  </sodipodi:namedview>
  <metadata
     id="metadata7">
    <rdf:RDF>
      <cc:Work
         rdf:about="">
        <dc:format>image/svg+xml</dc:format>
        <dc:type
           rdf:resource="http://purl.org/dc/dcmitype/StillImage" />
      </cc:Work>
    </rdf:RDF>
  </metadata>
  <g
     inkscape:label="Layer 1"
     inkscape:groupmode="layer"
     id="layer1">
    <path
       style="fill:#db7e4a;fill-opacity:1;fill-rule:evenodd;stroke:none;stroke-width:1.88110852000000000;stroke-linecap:round;stroke-linejoin:round;stroke-miterlimit:4;stroke-dasharray:none;stroke-opacity:1"
       d="M 0.94055425,4.5643325 L 4.8464988,0.94055425 L 75.1535,0.94055425 L 79.059446,4.5643325 C 79.059446,4.5643325 75.1535,19.059446 71.247556,19.059446 C 67.341612,19.059446 12.658388,19.059446 8.7524434,19.059446 C 4.8464988,19.059446 0.94055425,4.5643325 0.94055425,4.5643325 z"
       id="path2405"
       sodipodi:nodetypes="ccccszc" />
    <path
       style="fill:none;fill-rule:evenodd;stroke:#ffffff;stroke-width:1px;stroke-linecap:butt;stroke-linejoin:miter;stroke-opacity:1;filter:url(#filter3251)"
       d="M 12,16 L 8,12 L 12,4 L 16,12 L 12,16 z"
       id="path3177"
       transform="matrix(1,0,0,-1,0,20)" />
    <path
       style="fill:none;fill-rule:evenodd;stroke:#ffffff;stroke-width:1px;stroke-linecap:butt;stroke-linejoin:miter;stroke-opacity:1;filter:url(#filter3247)"
       d="M 68,4 L 72,12 L 68,16 L 64,12 L 68,4 z"
       id="path3179"
       transform="matrix(1,0,0,-1,0,20)" />
    <path
       sodipodi:type="inkscape:offset"
       inkscape:radius="-0.24555826"
       inkscape:original="M 5.65625 2.9375 L 3.25 5.15625 C 3.4964877 6.0302186 4.0368342 8.1377286 5.21875 11.0625 C 5.9222713 12.803435 6.7537644 14.533071 7.53125 15.6875 C 8.3087356 16.841929 9.010944 17.0625 8.75 17.0625 C 12.655945 17.0625 67.344053 17.0625 71.25 17.0625 C 70.989056 17.0625 71.691265 16.841929 72.46875 15.6875 C 73.246235 14.533071 74.077729 12.803435 74.78125 11.0625 C 75.963166 8.1377283 76.503512 6.0302187 76.75 5.15625 L 74.34375 2.9375 L 5.65625 2.9375 z "
       style="fill:url(#linearGradient3269);fill-opacity:1;fill-rule:evenodd;stroke:none;stroke-width:1.88110852;stroke-linecap:round;stroke-linejoin:round;stroke-miterlimit:4;stroke-dasharray:none;stroke-opacity:1"
       id="path3267"
       d="M 5.75,3.1875 L 3.53125,5.21875 C 3.7892265,6.1426808 4.2944878,8.1402497 5.4375,10.96875 C 6.1370073,12.699752 6.9906824,14.435047 7.75,15.5625 C 8.1236567,16.117314 8.4587036,16.434959 8.6875,16.625 C 8.7867126,16.707407 8.8438418,16.758101 8.90625,16.8125 C 13.044675,16.8125 66.955323,16.8125 71.09375,16.8125 C 71.156158,16.758101 71.213287,16.707407 71.3125,16.625 C 71.541296,16.434959 71.876344,16.117314 72.25,15.5625 C 73.009317,14.435047 73.862993,12.699752 74.5625,10.96875 C 75.705512,8.1402494 76.210773,6.142681 76.46875,5.21875 L 74.25,3.1875 L 5.75,3.1875 z" />
    <path
       sodipodi:nodetypes="ccccszc"
       id="path3271"
       d="M 0.94055425,4.5643325 L 4.8464988,0.94055425 L 75.1535,0.94055425 L 79.059446,4.5643325 C 79.059446,4.5643325 75.1535,19.059446 71.247556,19.059446 C 67.341612,19.059446 12.658388,19.059446 8.7524434,19.059446 C 4.8464988,19.059446 0.94055425,4.5643325 0.94055425,4.5643325 z"
       style="fill:none;fill-opacity:1;fill-rule:evenodd;stroke:#ffffff;stroke-width:1.88110852000000000;stroke-linecap:round;stroke-linejoin:round;stroke-miterlimit:4;stroke-dasharray:none;stroke-opacity:1" />
    <path
       id="path3273"
       d="M 26,16 L 22,12 L 26,4 L 30,12 L 26,16 z"
       style="fill:none;fill-rule:evenodd;stroke:#ffffff;stroke-width:1px;stroke-linecap:butt;stroke-linejoin:miter;stroke-opacity:1;filter:url(#filter3251)" />
    <path
       style="fill:none;fill-rule:evenodd;stroke:#ffffff;stroke-width:1px;stroke-linecap:butt;stroke-linejoin:miter;stroke-opacity:1;filter:url(#filter3251)"
       d="M 54,16 L 50,12 L 54,4 L 58,12 L 54,16 z"
       id="path3275" />
    <path
       id="path3277"
       d="M 40,16 L 36,12 L 40,4 L 44,12 L 40,16 z"
       style="fill:none;fill-rule:evenodd;stroke:#ffffff;stroke-width:1px;stroke-linecap:butt;stroke-linejoin:miter;stroke-opacity:1;filter:url(#filter3251)"
       transform="matrix(1,0,0,-1,0,20)" />
  </g>
</svg>
